<mxfile host="app.diagrams.net" modified="2022-08-01T13:09:06.514Z" agent="5.0 (Windows NT 6.1) AppleWebKit/537.36 (KHTML, like Gecko) Chrome/103.0.0.0 Safari/537.36" etag="PalibF_08nEKVyEER9SH" version="20.2.2" type="github">
  <diagram id="tY9mgi7D3-tn_PkzQ6KS" name="Page-1">
    <mxGraphModel dx="868" dy="431" grid="1" gridSize="10" guides="1" tooltips="1" connect="1" arrows="1" fold="1" page="1" pageScale="1" pageWidth="827" pageHeight="1169" math="0" shadow="0">
      <root>
        <mxCell id="0" />
        <mxCell id="1" parent="0" />
        <mxCell id="wc1e6-9r1Ym0C8jGS9Zp-8" value="" style="edgeStyle=orthogonalEdgeStyle;rounded=0;orthogonalLoop=1;jettySize=auto;html=1;entryX=0;entryY=0.5;entryDx=0;entryDy=0;" parent="1" source="wc1e6-9r1Ym0C8jGS9Zp-1" target="wc1e6-9r1Ym0C8jGS9Zp-9" edge="1">
          <mxGeometry relative="1" as="geometry">
            <mxPoint x="492" y="236" as="targetPoint" />
          </mxGeometry>
        </mxCell>
        <mxCell id="wc1e6-9r1Ym0C8jGS9Zp-1" value="if (year%4)=0" style="rounded=0;whiteSpace=wrap;html=1;" parent="1" vertex="1">
          <mxGeometry x="272" y="206" width="120" height="60" as="geometry" />
        </mxCell>
        <mxCell id="wc1e6-9r1Ym0C8jGS9Zp-13" value="" style="edgeStyle=orthogonalEdgeStyle;rounded=0;orthogonalLoop=1;jettySize=auto;html=1;fontSize=20;" parent="1" source="wc1e6-9r1Ym0C8jGS9Zp-2" target="wc1e6-9r1Ym0C8jGS9Zp-12" edge="1">
          <mxGeometry relative="1" as="geometry" />
        </mxCell>
        <mxCell id="wc1e6-9r1Ym0C8jGS9Zp-17" value="" style="edgeStyle=orthogonalEdgeStyle;rounded=0;orthogonalLoop=1;jettySize=auto;html=1;fontSize=20;" parent="1" source="wc1e6-9r1Ym0C8jGS9Zp-2" target="wc1e6-9r1Ym0C8jGS9Zp-3" edge="1">
          <mxGeometry relative="1" as="geometry" />
        </mxCell>
        <mxCell id="wc1e6-9r1Ym0C8jGS9Zp-2" value="if(year %100) != 0" style="rounded=0;whiteSpace=wrap;html=1;fontStyle=0;" parent="1" vertex="1">
          <mxGeometry x="272" y="346" width="120" height="60" as="geometry" />
        </mxCell>
        <mxCell id="wc1e6-9r1Ym0C8jGS9Zp-20" value="" style="edgeStyle=orthogonalEdgeStyle;rounded=0;orthogonalLoop=1;jettySize=auto;html=1;fontSize=20;" parent="1" source="wc1e6-9r1Ym0C8jGS9Zp-3" edge="1">
          <mxGeometry relative="1" as="geometry">
            <mxPoint x="332" y="626" as="targetPoint" />
          </mxGeometry>
        </mxCell>
        <mxCell id="wc1e6-9r1Ym0C8jGS9Zp-25" value="" style="edgeStyle=orthogonalEdgeStyle;rounded=0;orthogonalLoop=1;jettySize=auto;html=1;fontSize=12;" parent="1" source="wc1e6-9r1Ym0C8jGS9Zp-3" target="wc1e6-9r1Ym0C8jGS9Zp-24" edge="1">
          <mxGeometry relative="1" as="geometry" />
        </mxCell>
        <mxCell id="wc1e6-9r1Ym0C8jGS9Zp-3" value="if(year %400)=0" style="rounded=0;whiteSpace=wrap;html=1;" parent="1" vertex="1">
          <mxGeometry x="272" y="486" width="120" height="60" as="geometry" />
        </mxCell>
        <mxCell id="wc1e6-9r1Ym0C8jGS9Zp-4" value="" style="endArrow=none;html=1;rounded=0;exitX=0.5;exitY=1;exitDx=0;exitDy=0;entryX=0.5;entryY=0;entryDx=0;entryDy=0;" parent="1" source="wc1e6-9r1Ym0C8jGS9Zp-1" target="wc1e6-9r1Ym0C8jGS9Zp-2" edge="1">
          <mxGeometry width="50" height="50" relative="1" as="geometry">
            <mxPoint x="342" y="276" as="sourcePoint" />
            <mxPoint x="372" y="366" as="targetPoint" />
            <Array as="points" />
          </mxGeometry>
        </mxCell>
        <mxCell id="wc1e6-9r1Ym0C8jGS9Zp-9" value="Not Leap Year" style="rounded=0;whiteSpace=wrap;html=1;glass=0;" parent="1" vertex="1">
          <mxGeometry x="502" y="206" width="120" height="60" as="geometry" />
        </mxCell>
        <mxCell id="wc1e6-9r1Ym0C8jGS9Zp-10" value="&lt;span style=&quot;font-weight: normal;&quot;&gt;NO&lt;/span&gt;" style="text;html=1;resizable=0;autosize=1;align=center;verticalAlign=middle;points=[];fillColor=none;strokeColor=none;rounded=0;fontSize=20;fontStyle=1;" parent="1" vertex="1">
          <mxGeometry x="417" y="201" width="50" height="40" as="geometry" />
        </mxCell>
        <mxCell id="wc1e6-9r1Ym0C8jGS9Zp-11" value="yes" style="text;html=1;resizable=0;autosize=1;align=center;verticalAlign=middle;points=[];fillColor=none;strokeColor=none;rounded=0;rotation=270;fontStyle=0;fontSize=20;" parent="1" vertex="1">
          <mxGeometry x="297" y="286" width="50" height="40" as="geometry" />
        </mxCell>
        <mxCell id="wc1e6-9r1Ym0C8jGS9Zp-12" value="Leap Year" style="whiteSpace=wrap;html=1;rounded=0;fontStyle=0;" parent="1" vertex="1">
          <mxGeometry x="502" y="346" width="120" height="60" as="geometry" />
        </mxCell>
        <mxCell id="wc1e6-9r1Ym0C8jGS9Zp-14" value="yes" style="text;html=1;resizable=0;autosize=1;align=center;verticalAlign=middle;points=[];fillColor=none;strokeColor=none;rounded=0;rotation=0;fontStyle=0;fontSize=20;" parent="1" vertex="1">
          <mxGeometry x="417" y="336" width="50" height="40" as="geometry" />
        </mxCell>
        <mxCell id="wc1e6-9r1Ym0C8jGS9Zp-18" value="NO" style="text;html=1;resizable=0;autosize=1;align=center;verticalAlign=middle;points=[];fillColor=none;strokeColor=none;rounded=0;fontSize=20;fontStyle=0;rotation=270;" parent="1" vertex="1">
          <mxGeometry x="297" y="421" width="50" height="40" as="geometry" />
        </mxCell>
        <mxCell id="wc1e6-9r1Ym0C8jGS9Zp-21" value="yes" style="text;html=1;resizable=0;autosize=1;align=center;verticalAlign=middle;points=[];fillColor=none;strokeColor=none;rounded=0;rotation=270;fontStyle=0;fontSize=20;" parent="1" vertex="1">
          <mxGeometry x="292" y="566" width="50" height="40" as="geometry" />
        </mxCell>
        <mxCell id="wc1e6-9r1Ym0C8jGS9Zp-23" value="&lt;font style=&quot;font-size: 12px;&quot;&gt;Leap Year&lt;/font&gt;" style="rounded=0;whiteSpace=wrap;html=1;glass=0;fontSize=20;" parent="1" vertex="1">
          <mxGeometry x="272" y="626" width="120" height="60" as="geometry" />
        </mxCell>
        <mxCell id="wc1e6-9r1Ym0C8jGS9Zp-24" value="Not Leap Year" style="rounded=0;whiteSpace=wrap;html=1;" parent="1" vertex="1">
          <mxGeometry x="502" y="486" width="120" height="60" as="geometry" />
        </mxCell>
        <mxCell id="wc1e6-9r1Ym0C8jGS9Zp-27" value="&lt;span style=&quot;font-weight: normal;&quot;&gt;NO&lt;/span&gt;" style="text;html=1;resizable=0;autosize=1;align=center;verticalAlign=middle;points=[];fillColor=none;strokeColor=none;rounded=0;fontSize=20;fontStyle=1;" parent="1" vertex="1">
          <mxGeometry x="417" y="476" width="50" height="40" as="geometry" />
        </mxCell>
        <mxCell id="wc1e6-9r1Ym0C8jGS9Zp-29" value="&lt;font style=&quot;font-size: 40px;&quot;&gt;Leap Year Checker&lt;/font&gt;" style="text;html=1;align=center;verticalAlign=middle;resizable=0;points=[];autosize=1;strokeColor=none;fillColor=none;fontStyle=1" parent="1" vertex="1">
          <mxGeometry x="251" y="56" width="380" height="60" as="geometry" />
        </mxCell>
      </root>
    </mxGraphModel>
  </diagram>
</mxfile>
